<?xml version="1.0" encoding="utf-8"?>
<!-- Generator: Adobe Adobe Illustrator 29.2.0, SVG Export Plug-In . SVG Version: 6.00 Build 0)  -->
<svg version="1.1" xmlns="http://www.w3.org/2000/svg" xmlns:xlink="http://www.w3.org/1999/xlink" x="0px" y="0px"
	 width="147.87px" height="15.92px" viewBox="0 0 147.87 15.92" style="enable-background:new 0 0 147.87 15.92;"
	 xml:space="preserve">
<style type="text/css">
	.st0{display:none;}
	.st1{display:inline;fill:#083150;}
	.st2{display:inline;fill:#BB841C;}
	.st3{display:inline;fill:#F6F6F6;}
	.st4{display:inline;fill:#DB3E2C;}
	.st5{display:inline;}
	.st6{fill:#F8CB3C;}
	.st7{fill:#BB841C;}
	.st8{fill:#D8A125;}
	.st9{fill:#DB3E2C;}
	.st10{fill:#083150;}
	.st11{display:inline;fill:#F8CB3C;}
	.st12{display:inline;fill:#D8A125;}
	.st13{fill:#032B49;}
	.st14{display:inline;fill:#DB3D28;}
	.st15{fill:#DB3D28;}
	.st16{fill:#EBB72E;}
</style>
<g id="Layer_3">
</g>
<g id="Layer_1">
	<g>
		<g>
			<path class="st13" d="M3.74,12.05c0.55,0.08,2.28,0.07,2.85,0c0.11-0.01,0.22-0.03,0.33-0.06v-0.57
				c-0.84,0.06-1.74-0.09-2.54-0.02l-0.14-0.04C4.29,10.21,4.12,9,4.38,7.87l0.36-0.74C3.12,8.26,3.7,10.34,3.6,12.01
				C3.64,12.07,3.69,12.04,3.74,12.05z"/>
			<path class="st13" d="M4.85,10.83c0.68-0.02,1.41,0.07,2.08,0.02V9.85c-0.78-0.02-1.43-1-0.95-1.67
				c0.29-0.41,0.63-0.56,0.95-0.56v-1C6.28,6.67,5.69,6.87,5.19,7.53C5.1,7.64,5.02,7.82,4.96,7.95c-0.18,0.42-0.22,2.24-0.15,2.74
				C4.82,10.74,4.79,10.79,4.85,10.83z"/>
			<path class="st13" d="M3.05,12.61l-0.04-0.14c0.18-1.95-0.49-4.47,0.85-6.12c0.86-1.06,1.92-1.41,3.06-1.51V1.73H0v14.01h6.93
				v-3.11C5.63,12.73,4.22,12.52,3.05,12.61z"/>
			<path class="st13" d="M6.47,8.45C6.21,8.83,6.55,9.26,6.93,9.28V8.19C6.77,8.19,6.6,8.26,6.47,8.45z"/>
			<path class="st13" d="M4.39,6.71c0.72-0.58,1.62-0.69,2.54-0.68V5.41C6.12,5.47,5.34,5.69,4.68,6.28
				C4.57,6.38,4.33,6.54,4.39,6.71z"/>
		</g>
		<g>
			<path class="st13" d="M8.04,8.74H7.47c0,0.1-0.03,0.21-0.12,0.32C7.23,9.23,7.08,9.29,6.93,9.28v0.57c0.14,0,0.29-0.02,0.43-0.09
				C7.88,9.52,8.07,9.13,8.04,8.74z"/>
			<path class="st13" d="M10.82,8.74h-0.57c-0.08,0.99-0.38,1.92-1.25,2.63c-0.13-0.1-0.03-0.09,0.02-0.17
				c0.3-0.5,0.51-0.89,0.58-1.48l0-0.98H9.06c-0.01,0.1-0.01,0.19-0.02,0.25C9.01,9.16,8.97,9.33,8.91,9.49
				c-0.4,1.01-1.14,1.3-1.98,1.36v0.58c0.56-0.04,1.09-0.17,1.55-0.51c0.06,0.05-0.05,0.17-0.08,0.21
				c-0.32,0.41-0.92,0.73-1.47,0.87v0.64c0.74-0.06,1.43-0.21,2.02-0.58C10.31,11.21,10.72,10.03,10.82,8.74z"/>
		</g>
		<g>
			<path class="st15" d="M7.47,13.11v2.64h0.63v-2.76C7.9,13.03,7.69,13.07,7.47,13.11z"/>
			<rect x="12.2" y="8.73" class="st15" width="0.63" height="7.01"/>
			<rect x="13.38" y="8.74" class="st15" width="0.63" height="7"/>
			<path class="st15" d="M11.02,10.36v5.38h0.63V8.73h-0.3C11.31,9.3,11.21,9.85,11.02,10.36z"/>
			<path class="st15" d="M9.84,12.06v3.69h0.63v-4.36C10.29,11.62,10.08,11.84,9.84,12.06z"/>
			<path class="st15" d="M9.22,12.51c-0.18,0.11-0.37,0.21-0.56,0.29v2.95h0.63v-3.28C9.26,12.48,9.24,12.5,9.22,12.51z"/>
		</g>
		<g>
			<path class="st13" d="M6.93,7.63V8.2c0.28,0.01,0.54,0.25,0.55,0.54h0.57C8,8.18,7.5,7.64,6.93,7.63z"/>
			<path class="st13" d="M10.84,5.01L10.8,4.86C9.52,4.94,8.17,4.74,6.93,4.84v0.57c1.04-0.08,2.16,0.09,3.19,0.01l0.14,0.04
				c-0.07,1.05,0.08,2.21-0.01,3.28h0.57C10.92,7.54,10.75,6.24,10.84,5.01z"/>
			<path class="st13" d="M9.47,6.07c-0.8,0.08-1.68-0.03-2.54-0.04v0.59c0.66-0.05,1.36,0.06,2.08,0.02
				c0.05,0.04,0.03,0.09,0.04,0.14c0.05,0.36,0.04,1.38,0.01,1.95H9.6L9.61,6.1L9.47,6.07z"/>
		</g>
		<circle class="st16" cx="6.93" cy="8.73" r="0.63"/>
	</g>
	<g>
		<path class="st13" d="M17.87,1.73V4h-3.73v11.75h-2.81V4H7.59V1.73H17.87z"/>
		<path class="st13" d="M28.43,5.01c0.66,0.37,1.17,0.91,1.54,1.63c0.37,0.72,0.55,1.58,0.55,2.58v6.53H27.7V9.6
			c0-0.88-0.22-1.56-0.66-2.04C26.6,7.08,26,6.85,25.23,6.85c-0.78,0-1.39,0.24-1.84,0.71c-0.45,0.48-0.67,1.15-0.67,2.04v6.14
			h-2.81V0.88h2.81V6c0.36-0.48,0.84-0.86,1.45-1.13c0.6-0.27,1.27-0.41,2.01-0.41C27.02,4.46,27.77,4.64,28.43,5.01z"/>
		<path class="st13" d="M43.44,11.02h-8.13c0.07,0.8,0.35,1.43,0.84,1.89c0.5,0.46,1.1,0.68,1.83,0.68c1.04,0,1.79-0.45,2.23-1.34
			h3.03c-0.32,1.07-0.94,1.95-1.85,2.64c-0.91,0.69-2.03,1.03-3.35,1.03c-1.07,0-2.03-0.24-2.88-0.71
			c-0.85-0.48-1.51-1.15-1.99-2.02c-0.48-0.87-0.71-1.87-0.71-3.01c0-1.15,0.23-2.16,0.7-3.03c0.47-0.87,1.12-1.54,1.97-2.01
			c0.84-0.47,1.81-0.7,2.91-0.7c1.06,0,2,0.23,2.84,0.68c0.84,0.46,1.49,1.1,1.95,1.94c0.46,0.84,0.69,1.8,0.69,2.88
			C43.52,10.34,43.5,10.7,43.44,11.02z M40.61,9.14c-0.01-0.72-0.27-1.3-0.78-1.74s-1.13-0.65-1.87-0.65c-0.7,0-1.28,0.21-1.76,0.63
			c-0.48,0.42-0.77,1.01-0.87,1.76H40.61z"/>
		<path class="st13" d="M60.25,9.74c0.51,0.64,0.76,1.38,0.76,2.21c0,0.75-0.18,1.41-0.55,1.98c-0.37,0.57-0.9,1.01-1.6,1.33
			c-0.7,0.32-1.52,0.48-2.47,0.48h-6.04V1.73h5.78c0.95,0,1.77,0.15,2.46,0.46c0.69,0.31,1.21,0.74,1.57,1.28
			c0.35,0.55,0.53,1.17,0.53,1.87c0,0.82-0.22,1.5-0.65,2.05c-0.44,0.55-1.01,0.94-1.74,1.16C59.09,8.7,59.74,9.1,60.25,9.74z
			 M53.16,7.51h2.57c0.67,0,1.18-0.15,1.55-0.45c0.36-0.3,0.54-0.73,0.54-1.3c0-0.56-0.18-1-0.54-1.3C56.92,4.15,56.4,4,55.73,4
			h-2.57V7.51z M57.59,12.97c0.38-0.32,0.57-0.78,0.57-1.37c0-0.6-0.2-1.07-0.6-1.42c-0.4-0.34-0.94-0.51-1.63-0.51h-2.77v3.77h2.83
			C56.67,13.45,57.21,13.29,57.59,12.97z"/>
		<path class="st16" d="M63.45,2.82c-0.33-0.31-0.49-0.71-0.49-1.17c0-0.47,0.16-0.86,0.49-1.18C63.78,0.16,64.19,0,64.69,0
			s0.91,0.16,1.23,0.47c0.33,0.31,0.49,0.71,0.49,1.18c0,0.47-0.16,0.86-0.49,1.17s-0.74,0.47-1.23,0.47S63.78,3.14,63.45,2.82z"/>
		<rect x="63.26" y="4.62" class="st13" width="2.81" height="11.12"/>
		<path class="st13" d="M71.41,13.43h4.96v2.31h-8.15v-2.27l4.86-6.55h-4.84V4.62h8.07v2.27L71.41,13.43z"/>
		<path class="st13" d="M93.82,1.73v14.01h-2.81V6.63l-3.76,9.12h-2.13l-3.77-9.12v9.12h-2.81V1.73h3.19l4.46,10.42l4.46-10.42
			H93.82z"/>
		<path class="st13" d="M96.54,7.15c0.45-0.87,1.06-1.54,1.83-2.01c0.77-0.47,1.63-0.7,2.58-0.7c0.83,0,1.56,0.17,2.18,0.5
			c0.62,0.34,1.12,0.76,1.5,1.27V4.62h2.83v11.12h-2.83v-1.63c-0.36,0.52-0.86,0.95-1.5,1.3c-0.64,0.34-1.37,0.51-2.2,0.51
			c-0.94,0-1.79-0.24-2.56-0.72c-0.77-0.48-1.38-1.16-1.83-2.04c-0.45-0.88-0.67-1.88-0.67-3.02C95.87,9.01,96.09,8.02,96.54,7.15z
			 M104.22,8.42c-0.27-0.49-0.63-0.86-1.08-1.12c-0.46-0.26-0.94-0.39-1.47-0.39c-0.52,0-1,0.13-1.45,0.38
			c-0.44,0.25-0.8,0.63-1.07,1.11c-0.27,0.49-0.41,1.07-0.41,1.74c0,0.67,0.14,1.25,0.41,1.76c0.27,0.5,0.64,0.89,1.08,1.15
			c0.45,0.27,0.93,0.4,1.43,0.4c0.52,0,1.01-0.13,1.47-0.39c0.46-0.26,0.82-0.64,1.08-1.12c0.27-0.49,0.4-1.07,0.4-1.76
			S104.49,8.91,104.22,8.42z"/>
		<path class="st13" d="M112.01,15.43c-0.72-0.33-1.3-0.77-1.72-1.33c-0.42-0.56-0.65-1.19-0.69-1.87h2.83
			c0.05,0.43,0.26,0.78,0.63,1.06c0.37,0.28,0.83,0.42,1.37,0.42c0.54,0,0.95-0.11,1.25-0.32c0.3-0.21,0.45-0.49,0.45-0.82
			c0-0.36-0.18-0.63-0.55-0.81c-0.37-0.18-0.95-0.38-1.76-0.59c-0.83-0.2-1.51-0.41-2.04-0.62c-0.53-0.21-0.98-0.54-1.37-0.98
			c-0.38-0.44-0.57-1.04-0.57-1.79c0-0.62,0.18-1.18,0.53-1.69c0.35-0.51,0.86-0.91,1.53-1.21c0.66-0.29,1.44-0.44,2.34-0.44
			c1.32,0,2.38,0.33,3.17,0.99c0.79,0.66,1.22,1.56,1.31,2.68h-2.69c-0.04-0.44-0.22-0.79-0.55-1.05s-0.77-0.39-1.31-0.39
			c-0.51,0-0.9,0.09-1.17,0.28c-0.27,0.19-0.41,0.45-0.41,0.78c0,0.37,0.19,0.66,0.56,0.85c0.37,0.19,0.96,0.39,1.75,0.59
			c0.8,0.2,1.46,0.41,1.99,0.62c0.52,0.21,0.97,0.55,1.36,0.99c0.38,0.45,0.58,1.04,0.59,1.78c0,0.64-0.18,1.22-0.53,1.73
			c-0.35,0.51-0.86,0.91-1.53,1.19c-0.66,0.29-1.43,0.43-2.32,0.43C113.55,15.92,112.73,15.76,112.01,15.43z"/>
		<path class="st13" d="M124.42,6.93v5.38c0,0.37,0.09,0.65,0.27,0.81c0.18,0.17,0.48,0.25,0.91,0.25h1.3v2.37h-1.77
			c-2.37,0-3.55-1.15-3.55-3.45V6.93h-1.33V4.62h1.33V1.87h2.83v2.75h2.49v2.31H124.42z"/>
		<path class="st13" d="M139.19,11.02h-8.13c0.07,0.8,0.35,1.43,0.84,1.89c0.49,0.46,1.1,0.68,1.83,0.68c1.04,0,1.79-0.45,2.23-1.34
			h3.03c-0.32,1.07-0.94,1.95-1.85,2.64c-0.91,0.69-2.03,1.03-3.35,1.03c-1.07,0-2.03-0.24-2.88-0.71
			c-0.85-0.48-1.51-1.15-1.99-2.02c-0.48-0.87-0.71-1.87-0.71-3.01c0-1.15,0.23-2.16,0.7-3.03c0.47-0.87,1.12-1.54,1.97-2.01
			c0.84-0.47,1.81-0.7,2.91-0.7c1.06,0,2,0.23,2.84,0.68c0.84,0.46,1.49,1.1,1.95,1.94c0.46,0.84,0.69,1.8,0.69,2.88
			C139.27,10.34,139.25,10.7,139.19,11.02z M136.36,9.14c-0.01-0.72-0.27-1.3-0.78-1.74c-0.51-0.43-1.13-0.65-1.87-0.65
			c-0.7,0-1.28,0.21-1.76,0.63c-0.48,0.42-0.77,1.01-0.87,1.76H136.36z"/>
		<path class="st13" d="M145.55,4.96c0.58-0.33,1.25-0.5,2-0.5v2.95h-0.74c-0.88,0-1.55,0.21-2,0.62c-0.45,0.42-0.67,1.14-0.67,2.17
			v5.54h-2.81V4.62h2.81v1.73C144.5,5.76,144.97,5.29,145.55,4.96z"/>
	</g>
</g>
<g id="Layer_4">
</g>
</svg>
